<svg id="图层_1" data-name="图层 1" xmlns="http://www.w3.org/2000/svg" xmlns:xlink="http://www.w3.org/1999/xlink" viewBox="0 0 819.2 711.09"><defs><style>.cls-1{fill:none;}.cls-2{clip-path:url(#clip-path);}</style><clipPath id="clip-path" transform="translate(-89.88 -144.75)"><rect class="cls-1" x="90" y="144" width="819.84" height="712.8"/></clipPath></defs><title>文件夹-开</title><g class="cls-2"><path d="M819.48,804.64a51.2,51.2,0,0,1-51.2,51.2h-640l89.6-422.4a51.2,51.2,0,0,1,51.2-51.2h588.8a51.2,51.2,0,0,1,51.2,51.2Zm0,0" transform="translate(-89.88 -144.75)"/><path d="M230.68,343.84h576v-50.3a51.2,51.2,0,0,0-51.2-51.2H448.28V195.95a51.2,51.2,0,0,0-51.2-51.2h-256a51.2,51.2,0,0,0-51.2,51.2v608.7l89.6-409.6a51.2,51.2,0,0,1,51.2-51.22Zm0,0" transform="translate(-89.88 -144.75)"/></g></svg>